<?xml version="1.0" encoding="windows-1252"?>
<!-- Generator: Adobe Illustrator 16.0.0, SVG Export Plug-In . SVG Version: 6.00 Build 0)  -->
<!DOCTYPE svg PUBLIC "-//W3C//DTD SVG 1.1//EN" "http://www.w3.org/Graphics/SVG/1.1/DTD/svg11.dtd">
<svg version="1.1" id="Vectorportal.com" xmlns="http://www.w3.org/2000/svg" xmlns:xlink="http://www.w3.org/1999/xlink" x="0px" y="0px" width="900px" height="900px" viewBox="0 0 900 900" style="enable-background:new 0 0 900 900;" xml:space="preserve">
<g>
	<circle style="fill:#D58860;" cx="450.911" cy="451" r="366.089"/>
	<g style="opacity:0.5;">
		<path style="fill:#3A3A3A;" d="M900.737,279.98l-114.799-54.318L569.704,457.45l-213.448-93.387L91.86,474.604L1.085,411.992    c0,7.963,0,15.566,0,22.777l88.559,61.081l266.443-111.396l218.268,95.5l215.947-231.483l110.435,52.253    C900.737,293.917,900.737,287.007,900.737,279.98z"/>
		<circle style="fill:#3A3A3A;" cx="90.753" cy="485.229" r="27.431"/>
		<circle style="fill:#3A3A3A;" cx="790.261" cy="239.813" r="27.431"/>
		<circle style="fill:#3A3A3A;" cx="352.038" cy="373.457" r="21.095"/>
		<circle style="opacity:0.5;fill:#3A3A3A;" cx="569.736" cy="468.701" r="35.338"/>
		<circle style="fill:#3A3A3A;" cx="569.736" cy="468.701" r="21.095"/>
		<circle style="fill:#FFFFFF;" cx="569.736" cy="468.701" r="9.717"/>
		<circle style="opacity:0.5;fill:#767676;" cx="836.353" cy="409.96" r="40.233"/>
		<path style="fill:#767676;" d="M900.737,221.874l-70.882,181.172l-127.698,5.096l-205.931-80.856L365.331,457.844L132.18,372.467    L1.085,467.542c0,8.691,0,16.446,0,23.163l134.021-97.199l235,86.054l130.68-130.338l198.185,77.811l143.879-5.737l57.888-147.959    C900.737,256.723,900.737,239.549,900.737,221.874z"/>
		<circle style="fill:#767676;" cx="134.409" cy="382.243" r="21.095"/>
		<circle style="fill:#767676;" cx="699.245" cy="417.347" r="21.095"/>
		<circle style="fill:#767676;" cx="836.352" cy="409.96" r="26.826"/>
		<circle style="fill:#FFFFFF;" cx="836.353" cy="409.96" r="13.918"/>
		<circle style="fill:#767676;" cx="498.506" cy="338.255" r="21.095"/>
		<circle style="fill:#767676;" cx="366.488" cy="468.701" r="21.095"/>
	</g>
	<g>
		<path style="fill:#333436;" d="M470.957,657.249c0.337-1.12,0.519-2.307,0.519-3.536V459.251c0-6.788-5.503-12.292-12.291-12.292    H174.553c-6.788,0-12.291,5.504-12.291,12.292v194.462c0,1.229,0.183,2.416,0.518,3.536H470.957z"/>
		<rect x="172.95" y="459.689" style="fill:#EDEEF0;" width="287.973" height="178.667"/>
		<path style="fill:#5B5B5F;" d="M459.185,446.959H352.242l98.145,208.26h20.993c0.062-0.494,0.096-0.996,0.096-1.506V459.251    C471.476,452.463,465.973,446.959,459.185,446.959z"/>
		<polygon style="fill:#F7F7F8;" points="442.002,638.356 460.923,638.356 460.923,459.689 357.802,459.689   "/>
		<path style="fill:#D8D9DD;" d="M129.692,660.066c2.376,2.728,7.576,4.621,13.612,4.621h347.13c6.036,0,11.236-1.894,13.612-4.621    H129.692z"/>
		<rect x="127.447" y="653.189" style="fill:#F7F7F8;" width="378.843" height="7.316"/>
		<path style="fill:#D8D9DD;" d="M290.045,653.189c0.655,2.348,2.671,4.06,5.061,4.06h42.917c2.388,0,4.406-1.712,5.061-4.06    H290.045z"/>
	</g>
	<g>
		<path style="fill:#426764;" d="M461.243,516.938l-36.828-17.426l-69.369,74.359l-68.476-29.959l-84.82,35.462l-29.121-20.086    c0,2.555,0,4.994,0,7.307l28.41,19.596l85.477-35.736l70.022,30.637l69.277-74.262l35.428,16.764    C461.243,521.41,461.243,519.192,461.243,516.938z"/>
		<circle style="fill:#426764;" cx="201.395" cy="582.783" r="8.8"/>
		<circle style="fill:#426764;" cx="425.802" cy="504.053" r="8.8"/>
		<circle style="fill:#426764;" cx="285.217" cy="546.927" r="6.767"/>
		<circle style="opacity:0.5;fill:#426764;" cx="355.056" cy="577.481" r="11.337"/>
		<circle style="fill:#426764;" cx="355.056" cy="577.481" r="6.767"/>
		<circle style="fill:#FFFFFF;" cx="355.056" cy="577.481" r="3.117"/>
		<circle style="opacity:0.5;fill:#C6750E;" cx="440.588" cy="558.637" r="12.907"/>
		<path style="fill:#C6750E;" d="M461.243,498.298l-22.739,58.121l-40.966,1.635l-66.064-25.939l-41.992,41.884l-74.796-27.389    l-42.056,30.5c0,2.788,0,5.276,0,7.431l42.995-31.182l75.39,27.606l41.923-41.813l63.579,24.962l46.157-1.841l18.57-47.466    C461.243,509.478,461.243,503.968,461.243,498.298z"/>
		<circle style="fill:#C6750E;" cx="215.4" cy="549.745" r="6.767"/>
		<circle style="fill:#C6750E;" cx="396.603" cy="561.007" r="6.767"/>
		<circle style="fill:#C6750E;" cx="440.588" cy="558.637" r="8.606"/>
		<circle style="fill:#FFFFFF;" cx="440.588" cy="558.637" r="4.465"/>
		<circle style="fill:#C6750E;" cx="332.205" cy="535.634" r="6.768"/>
		<circle style="fill:#C6750E;" cx="289.853" cy="577.481" r="6.768"/>
	</g>
	<g>
		<path style="fill:#F7F7F8;" d="M588.825,664.607c0-0.036,0.005-0.071,0.005-0.108l0,0c0-7.765-6.353-14.117-14.117-14.117h-26.596    c-7.765,0-14.117,6.353-14.117,14.117l0,0c0,0.037,0.005,0.072,0.006,0.108H588.825z"/>
		<path style="fill:#FFFFFF;" d="M574.713,650.382h-8.851c8.233,0,15.074,6.242,16.036,14.226h6.927    c0-0.036,0.005-0.071,0.005-0.108l0,0C588.83,656.734,582.478,650.382,574.713,650.382z"/>
	</g>
	<g>
		<polygon style="opacity:0.5;fill:#FFFEFA;" points="555.606,681.429 127.447,681.429 551.046,305.42 635.536,356.486   "/>
		<path style="fill:#44484D;" d="M796.927,494.864c-1.964,0-3.817,0.449-5.485,1.23L640.755,343.676    c-0.54-2.114-1.868-4.026-3.864-5.244c0.941-1.795,1.48-3.835,1.48-6.003c0-7.155-5.8-12.955-12.955-12.955    c-4.415,0-8.31,2.213-10.648,5.586l-48.336-29.214c-4.072-2.461-9.418-1.143-11.88,2.929l-4.592,7.598l-74.284,65.102    l136.417,82.45l23.105-96.034l4.238-7.012l147.285,148.979c-1.718,2.198-2.75,4.957-2.75,7.963c0,4.039,1.85,7.645,4.747,10.021    l-83.707,128.71h-50.679c-2.75,0-5,2.25-5,5v24.879c0,2.75,2.25,5,5,5h103.605c2.75,0,5-2.25,5-5V651.55c0-2.75-2.25-5-5-5h-45.77    l81.994-126.078c0.892,0.193,1.814,0.302,2.764,0.302c7.154,0,12.955-5.8,12.955-12.954    C809.882,500.664,804.081,494.864,796.927,494.864z"/>
		<path style="fill:#575D63;" d="M596.874,314.244l-30.442-18.399c-4.072-2.461-9.418-1.143-11.88,2.929l-4.592,7.598    l-74.284,65.102l56.705,34.272L596.874,314.244z"/>
	</g>
	<path style="fill:#5B5B5F;" d="M823.897,675.449h-25.084v-5.153c0-3.194-2.614-5.809-5.809-5.809H111.032   c-3.195,0-5.809,2.614-5.809,5.809v10.307c0,3.194,2.614,5.809,5.809,5.809h25.084v5.153c0,3.194,2.614,5.809,5.809,5.809h681.973   c3.195,0,5.809-2.614,5.809-5.809v-10.307C829.706,678.063,827.093,675.449,823.897,675.449z"/>
</g>
</svg>