<?xml version="1.0" encoding="windows-1252"?>
<!-- Generator: Adobe Illustrator 16.0.0, SVG Export Plug-In . SVG Version: 6.00 Build 0)  -->
<!DOCTYPE svg PUBLIC "-//W3C//DTD SVG 1.1//EN" "http://www.w3.org/Graphics/SVG/1.1/DTD/svg11.dtd">
<svg version="1.1" id="publicdomainvectors.org" xmlns="http://www.w3.org/2000/svg" xmlns:xlink="http://www.w3.org/1999/xlink" x="0px" y="0px" width="600px" height="600px" viewBox="0 0 600 600" style="enable-background:new 0 0 600 600;" xml:space="preserve">
<g>
	<g>
		<path style="fill-rule:evenodd;clip-rule:evenodd;fill:#333333;" d="M145.688,103.029H458.82c6.689,0,12.164,5.474,12.164,12.165    v184.575c0,6.69-5.475,12.165-12.164,12.165H145.688c-6.691,0-12.165-5.475-12.165-12.165V115.193    C133.522,108.502,138.996,103.029,145.688,103.029z"/>
		<rect x="145.189" y="114.696" style="fill-rule:evenodd;clip-rule:evenodd;fill:#D9E2EB;" width="314.13" height="185.572"/>
		<polygon style="fill-rule:evenodd;clip-rule:evenodd;fill:#4D9CEB;" points="195.068,114.696 204.001,123.628 459.319,123.628     459.319,114.696   "/>
		<rect x="145.189" y="133.202" style="fill-rule:evenodd;clip-rule:evenodd;fill:#EFF3F7;" width="314.13" height="167.064"/>
		<rect x="171.563" y="139.181" style="fill-rule:evenodd;clip-rule:evenodd;fill:#FF6666;" width="261.38" height="28.13"/>
		<rect x="171.563" y="174.93" style="fill-rule:evenodd;clip-rule:evenodd;fill:#80BAF5;" width="52.813" height="74.133"/>
		<rect x="171.563" y="258.073" style="fill-rule:evenodd;clip-rule:evenodd;fill:#80BAF5;" width="52.813" height="42.193"/>
		<rect x="364.615" y="174.93" style="fill-rule:evenodd;clip-rule:evenodd;fill:#CFE35D;" width="68.328" height="74.133"/>
		<rect x="364.615" y="258.073" style="fill-rule:evenodd;clip-rule:evenodd;fill:#CFE35D;" width="68.328" height="42.193"/>
		<rect x="230.94" y="174.929" style="fill-rule:evenodd;clip-rule:evenodd;fill:#CCD3D9;" width="128.304" height="125.337"/>
	</g>
	<path style="fill-rule:evenodd;clip-rule:evenodd;fill:#1F1F1F;" d="M423.25,200.683h114.011c5.7,0,10.364,4.663,10.364,10.363   v172.109c0,5.7-4.664,10.364-10.364,10.364H423.25c-5.7,0-10.363-4.664-10.363-10.364V211.046   C412.887,205.346,417.55,200.683,423.25,200.683z"/>
	<rect x="419.442" y="207.239" style="fill-rule:evenodd;clip-rule:evenodd;fill:#EFF3F7;" width="121.626" height="179.724"/>
	<path style="fill-rule:evenodd;clip-rule:evenodd;fill:#1F1F1F;" d="M293.925,341.601h43.667c7.315,0,13.304,5.987,13.304,13.304   v90.824c0,7.318-5.988,13.305-13.304,13.305h-43.667c-7.317,0-13.304-5.986-13.304-13.305v-90.824   C280.621,347.588,286.607,341.601,293.925,341.601z"/>
	<path style="fill-rule:evenodd;clip-rule:evenodd;fill:#1F1F1F;" d="M72.853,269.905h141.116c3.686,0,6.7,3.015,6.7,6.701v95.378   c0,3.687-3.015,6.7-6.7,6.7H72.853c-3.685,0-6.7-3.014-6.7-6.7v-95.378C66.153,272.92,69.168,269.905,72.853,269.905z"/>
	<rect x="72.284" y="276.037" style="fill-rule:evenodd;clip-rule:evenodd;fill:#EFF3F7;" width="142.254" height="96.518"/>
	<rect x="419.442" y="207.239" style="fill-rule:evenodd;clip-rule:evenodd;fill:#4D9CEB;" width="121.626" height="9.502"/>
	<rect x="425.73" y="224.571" style="fill-rule:evenodd;clip-rule:evenodd;fill:#FF6666;" width="109.052" height="21.639"/>
	<g>
		<rect x="425.73" y="254.541" style="fill-rule:evenodd;clip-rule:evenodd;fill:#80BAF5;" width="51.267" height="28.326"/>
		<rect x="483.515" y="254.541" style="fill-rule:evenodd;clip-rule:evenodd;fill:#CFE35D;" width="51.268" height="28.326"/>
	</g>
	<rect x="425.73" y="291.482" style="fill-rule:evenodd;clip-rule:evenodd;fill:#CCD3D9;" width="109.052" height="95.48"/>
	<rect x="72.284" y="276.037" style="fill-rule:evenodd;clip-rule:evenodd;fill:#4D9CEB;" width="142.254" height="6.62"/>
	<rect x="77.758" y="287.781" style="fill-rule:evenodd;clip-rule:evenodd;fill:#FF6666;" width="131.306" height="15.729"/>
	<rect x="77.757" y="316.04" style="fill-rule:evenodd;clip-rule:evenodd;fill:#80BAF5;" width="37.809" height="56.515"/>
	<rect x="122.685" y="316.04" style="fill-rule:evenodd;clip-rule:evenodd;fill:#CCD3D9;" width="86.379" height="56.515"/>
	<rect x="77.758" y="307.07" style="fill-rule:evenodd;clip-rule:evenodd;fill:#CFE35D;" width="131.306" height="4.863"/>
	<rect x="283.326" y="354.904" style="fill-rule:evenodd;clip-rule:evenodd;fill:#EFF3F7;" width="64.863" height="90.824"/>
	<rect x="283.326" y="354.906" style="fill-rule:evenodd;clip-rule:evenodd;fill:#4D9CEB;" width="64.863" height="6.727"/>
	<rect x="286.382" y="364.728" style="fill-rule:evenodd;clip-rule:evenodd;fill:#FF6666;" width="59.39" height="11.639"/>
	<rect x="286.382" y="378.894" style="fill-rule:evenodd;clip-rule:evenodd;fill:#CFE35D;" width="59.39" height="8.507"/>
	<rect x="286.382" y="389.856" style="fill-rule:evenodd;clip-rule:evenodd;fill:#80BAF5;" width="59.39" height="8.505"/>
	<rect x="286.382" y="401.103" style="fill-rule:evenodd;clip-rule:evenodd;fill:#CCD3D9;" width="59.39" height="44.626"/>
	<path style="fill-rule:evenodd;clip-rule:evenodd;fill:#4D4D4D;" d="M310.445,449.328h10.625c1.646,0,2.988,1.345,2.988,2.989   v0.001c0,1.644-1.343,2.988-2.988,2.988h-10.625c-1.645,0-2.989-1.345-2.989-2.988v-0.001   C307.456,450.673,308.801,449.328,310.445,449.328z"/>
</g>
</svg>